<svg xmlns="http://www.w3.org/2000/svg" viewBox="0 0 713.24 713.24"><defs><style>.cls-1{fill:#0092ff;}.cls-2{fill:#fff;}</style></defs><g id="Layer_2" data-name="Layer 2"><g id="Objects"><circle class="cls-1" cx="356.62" cy="356.62" r="356.62"/><path class="cls-2" d="M254.57,280.78c0,62,45.69,112.28,102.05,112.28s102.05-50.27,102.05-112.28v-29.7c0-62-45.69-99.59-102.05-99.59s-102.05,37.58-102.05,99.59Z"/><path class="cls-2" d="M517.85,521.15c0,24.64-51.13,52.17-161.23,52.17s-161.23-27.53-161.23-52.17c0-39.12,16.49-85.45,39.67-101.06C262,402,285.07,392,302.12,386.43a103.3,103.3,0,0,0,109,0c17,5.53,40.13,15.54,67.05,33.66C501.36,435.7,517.85,482,517.85,521.15Z"/></g></g></svg>