<svg xmlns="http://www.w3.org/2000/svg" viewBox="0 0 429.74 410.58"><defs><style>.cls-1{fill:#ebebeb;}.cls-11,.cls-2{fill:#fff;}.cls-3{fill:#dbdbdb;}.cls-4{fill:#c7c7c7;}.cls-5{fill:#a6a6a6;}.cls-6{fill:#263238;}.cls-7{fill:#ffc727;}.cls-8{opacity:0.1;}.cls-9{fill:none;}.cls-10{fill:#455a64;}.cls-11{stroke:#ebebeb;stroke-miterlimit:10;stroke-width:0.5px;}.cls-12{fill:#37474f;}.cls-13{fill:#eb9481;}.cls-14{opacity:0.05;}.cls-15{fill:#ff9abb;}</style></defs><g id="Layer_2" data-name="Layer 2"><g id="Background_Complete" data-name="Background Complete"><rect class="cls-1" x="88.05" y="81.69" width="57.76" height="91.08" transform="translate(-24.94 225.89) rotate(-82.23)"/><path class="cls-2" d="M75.71,92.47c3.17,4,6.42,7.82,9.63,11.75s6.5,7.73,9.77,11.56q5.13,6,10.29,11.9l.31.38q4.56,5.22,9.16,10.43l.46.5.56-.36q5.82-3.8,11.61-7.62c.13-.07.27-.17.41-.26q6.57-4.32,13.12-8.73c4.16-2.8,8.33-5.65,12.49-8.5s8.31-5.76,12.43-8.75c-4.29,2.46-8.52,5.08-12.77,7.61s-8.5,5.2-12.73,7.85q-7,4.39-14.12,8.93l0,0q-5.28,3.36-10.57,6.76c-2.78-3.12-5.57-6.26-8.36-9.34,0,0,0,0,0,0q-5.59-6.22-11.22-12.38-5-5.51-10.14-11C82.55,99.64,79.17,96,75.71,92.47Z"/><path class="cls-2" d="M126,130.45l.09.11,1.26,1.4c2,2.22,4.07,4.36,6.19,6.46,2.57,2.59,5.23,5.09,7.9,7.58s5.39,4.89,8.17,7.26,5.6,4.69,8.55,6.87c-2.41-2.77-5-5.39-7.53-8s-5.24-5.1-7.9-7.58-5.4-4.91-8.19-7.28c-2.21-1.89-4.47-3.75-6.79-5.53-.54-.42-1.08-.83-1.63-1.23Z"/><path class="cls-2" d="M68.37,147.89c3.42-1.32,6.77-2.81,10.07-4.34s6.58-3.16,9.84-4.8,6.46-3.39,9.64-5.19c2.58-1.46,5.15-3,7.66-4.56l1.6-1,.12-.08a.37.37,0,0,1-.14,0l-1.9.77c-2.72,1.09-5.38,2.29-8,3.51-3.32,1.54-6.57,3.16-9.82,4.82s-6.47,3.38-9.64,5.19S71.43,145.86,68.37,147.89Z"/><rect class="cls-1" x="28.9" y="18.37" width="77" height="48.83" transform="translate(-8.45 17.9) rotate(-14.24)"/><path class="cls-2" d="M24.08,28.59c3.75,2.12,7.52,4.1,11.28,6.17s7.54,4,11.31,6c3.95,2.05,7.9,4.06,11.84,6.07.13.06.24.13.36.2l10.49,5.27.52.25.32-.46q3.36-4.81,6.69-9.65c.08-.1.16-.22.24-.34q3.78-5.46,7.52-11C87,27.55,89.39,24,91.75,20.44s4.68-7.15,7-10.79c-2.58,3.28-5.07,6.67-7.6,10s-5,6.76-7.49,10.18q-4.14,5.69-8.24,11.48s0,0,0,0q-3.08,4.3-6.14,8.65c-3.17-1.56-6.35-3.14-9.52-4.68l0,0Q53.34,42.17,47,39.13q-5.7-2.72-11.41-5.36C31.72,32,27.91,30.25,24.08,28.59Z"/><path class="cls-2" d="M75.55,42.43l.11,0,1.43.7q3.41,1.65,6.9,3.1c2.83,1.22,5.71,2.34,8.59,3.44s5.78,2.13,8.71,3.1,5.88,1.91,8.88,2.69c-2.77-1.41-5.59-2.66-8.43-3.86S96,49.32,93.15,48.21s-5.79-2.14-8.72-3.11c-2.34-.78-4.7-1.53-7.08-2.19l-1.67-.45Z"/><path class="cls-2" d="M35.89,74.36c2.26-2.11,4.42-4.34,6.52-6.59s4.15-4.57,6.19-6.88,4-4.7,5.91-7.12c1.57-2,3.1-4,4.56-6q.48-.66.93-1.32s0-.07.07-.1a.43.43,0,0,1-.1.09c-.42.4-.83.79-1.24,1.2-1.79,1.71-3.49,3.5-5.18,5.3-2.12,2.25-4.15,4.56-6.18,6.89s-4,4.7-5.91,7.12S37.65,71.8,35.89,74.36Z"/><rect class="cls-1" x="334.11" y="219.25" width="77" height="48.83" transform="translate(-25.84 45.05) rotate(-6.69)"/><path class="cls-2" d="M331.53,223.9c3.43,2.59,6.91,5,10.37,7.6s7,4.95,10.43,7.39q5.46,3.83,10.94,7.58l.33.24q4.84,3.31,9.71,6.61l.48.31.38-.41q4-4.33,7.9-8.69l.28-.3c3-3.28,5.94-6.57,8.89-9.92,2.82-3.16,5.64-6.38,8.44-9.59s5.59-6.47,8.33-9.78c-3,2.91-5.91,5.95-8.85,8.92s-5.86,6-8.76,9.11q-4.86,5.09-9.68,10.3h0q-3.61,3.87-7.23,7.78c-2.93-2-5.88-4-8.82-5.9l0,0q-5.89-3.93-11.8-7.78-5.29-3.44-10.62-6.82C338.65,228.33,335.11,226.05,331.53,223.9Z"/><path class="cls-2" d="M380.73,244.38l.11.07c.44.3.88.6,1.32.88,2.11,1.4,4.26,2.72,6.43,4,2.65,1.57,5.35,3.06,8.07,4.54s5.44,2.86,8.22,4.21,5.58,2.67,8.45,3.83c-2.56-1.76-5.19-3.37-7.84-4.93s-5.37-3.06-8.07-4.54-5.46-2.88-8.24-4.23c-2.21-1.08-4.45-2.13-6.73-3.1l-1.59-.66Z"/><path class="cls-2" d="M337.22,270.83c2.52-1.8,4.95-3.73,7.33-5.68s4.71-4,7-6,4.58-4.13,6.79-6.28c1.81-1.74,3.6-3.51,5.31-5.35.38-.39.74-.78,1.1-1.18a.73.73,0,0,0,.08-.09.3.3,0,0,1-.1.07c-.48.35-.94.68-1.4,1-2,1.47-3.92,3-5.83,4.57-2.39,2-4.72,4-7,6s-4.58,4.13-6.79,6.28S339.3,268.52,337.22,270.83Z"/><path class="cls-1" d="M347.85,113l-13.13.28-6.66.11c-2.23,0-4.46,0-6.69.06h-.45V113l-.05-11.19v-.5h.51l13.24.06c4.41,0,8.82.12,13.24.17h.27v.27c0,1.9-.09,3.79-.13,5.66Zm0,0-.15-5.65c0-1.87-.11-3.71-.13-5.54l.28.27c-4.42.06-8.83.16-13.24.17l-13.24.06.49-.5L321.81,113l-.44-.44c2.18,0,4.35,0,6.54,0l6.58.11Z"/><path class="cls-1" d="M333.07,127.13l-13.12.28-6.66.11c-2.23,0-4.46,0-6.7.06h-.44v-.45l-.06-11.19v-.5h.5l13.24.06c4.42,0,8.83.12,13.24.17h.28v.27c0,1.9-.09,3.79-.13,5.66Zm0,0-.14-5.65c0-1.87-.11-3.71-.13-5.54l.27.27c-4.41.06-8.82.16-13.24.17l-13.24.06.5-.5,0,11.19-.45-.44c2.19,0,4.36,0,6.55,0l6.58.11Z"/><path class="cls-1" d="M362.62,127.13l-13.13.28-6.66.11c-2.22,0-4.46,0-6.69.06h-.45v-.45l-.05-11.19v-.5h.5l13.24.06c4.41,0,8.82.12,13.24.17h.27v.27c0,1.9-.09,3.79-.13,5.66Zm0,0-.14-5.65c-.05-1.87-.12-3.71-.14-5.54l.28.27c-4.42.06-8.83.16-13.24.17l-13.24.06.5-.5-.06,11.19-.44-.44c2.18,0,4.36,0,6.54,0l6.58.11Z"/><path class="cls-1" d="M413.06,11.69,399.94,12l-6.67.11c-2.22.05-4.46,0-6.69.06h-.44v-.45L386.08.5V0h.5l13.24.07c4.41,0,8.83.11,13.24.16h.28V.5c0,1.9-.08,3.79-.13,5.66Zm0,0L412.92,6c-.05-1.86-.11-3.71-.13-5.54l.27.27c-4.41.06-8.83.16-13.24.17L386.58,1l.5-.5L387,11.69l-.45-.44c2.18,0,4.36,0,6.55.05l6.57.11Z"/><path class="cls-1" d="M427.83,25.8l-13.12.28-6.66.11c-2.23,0-4.47,0-6.7.06h-.44V25.8l-.06-11.19v-.5h.5l13.24.07c4.42,0,8.83.11,13.24.16h.28v.27c0,1.9-.09,3.79-.14,5.66Zm0,0-.14-5.65c0-1.87-.11-3.71-.13-5.54l.27.27c-4.41.06-8.82.16-13.24.17l-13.24.06.5-.5L401.8,25.8l-.45-.44c2.18,0,4.36,0,6.55.05l6.58.11Z"/><path class="cls-1" d="M38.08,11.7,25,12l-6.66.11c-2.22.05-4.46,0-6.69.06h-.45V11.7L11.1.51V0h.5L24.84.08c4.41,0,8.82.11,13.24.16h.27V.51c0,1.9-.09,3.79-.13,5.66Zm0,0-.14-5.65c0-1.86-.12-3.7-.14-5.54l.28.28C33.66.84,29.25,1,24.84,1L11.6,1l.5-.5L12,11.7l-.44-.44c2.18,0,4.36,0,6.54.05l6.58.11Z"/><path class="cls-1" d="M401.35,271.91l13.13-.28,6.66-.11c2.22,0,4.46,0,6.69-.06h.45v.45l.05,11.19v.5h-.5l-13.24-.07c-4.41,0-8.82-.11-13.24-.16h-.27v-.27c0-1.9.08-3.79.13-5.66Zm0,0,.14,5.65c.05,1.86.12,3.71.13,5.54l-.27-.27c4.42-.06,8.83-.16,13.24-.17l13.24-.06-.5.5.06-11.19.44.44c-2.18,0-4.36,0-6.54-.05l-6.58-.11Z"/><path class="cls-1" d="M11.6,271.91l13.12-.28,6.66-.11c2.23,0,4.47,0,6.7-.06h.44v.45l.06,11.19v.5h-.5l-13.24-.07c-4.42,0-8.83-.11-13.24-.16h-.28v-.27c0-1.9.09-3.79.14-5.66Zm0,0,.14,5.65c0,1.86.11,3.71.13,5.54l-.27-.27c4.41-.06,8.82-.16,13.24-.17l13.24-.06-.5.5.05-11.19.45.44c-2.18,0-4.36,0-6.55-.05L25,272.19Z"/><path class="cls-1" d="M26.37,257.8l13.12-.28,6.66-.11c2.23-.05,4.47,0,6.7-.06h.44v.45L53.35,269v.5h-.5l-13.24-.07c-4.41,0-8.83-.11-13.24-.16h-.28V269c0-1.9.08-3.79.13-5.66Zm0,0,.14,5.65c0,1.86.11,3.71.13,5.54l-.27-.27c4.41-.06,8.83-.16,13.24-.17l13.24-.06-.5.5,0-11.19.45.44c-2.18,0-4.36,0-6.55-.05l-6.58-.11Z"/><rect class="cls-1" x="293.49" y="81.52" width="136.25" height="8.09" transform="translate(723.23 171.14) rotate(180)"/><rect class="cls-1" x="411.31" y="89.62" width="8.09" height="26.76"/><rect class="cls-3" x="411.31" y="89.62" width="8.09" height="8.27"/><rect class="cls-1" x="303.83" y="89.62" width="8.09" height="26.76"/><rect class="cls-3" x="303.83" y="89.62" width="8.09" height="8.27"/><rect class="cls-4" x="363.03" y="49.25" width="51.56" height="12.98" transform="translate(444.56 -333.07) rotate(90)"/><rect class="cls-3" x="385.98" y="23.55" width="5.67" height="12.98" transform="translate(418.85 -358.78) rotate(90)"/><rect class="cls-3" x="387.76" y="34.69" width="2.1" height="12.98" transform="translate(430 -347.63) rotate(90)"/><rect class="cls-3" x="385.17" y="64.63" width="5.67" height="14.6" transform="translate(459.93 -316.08) rotate(90)"/><rect class="cls-3" x="347.71" y="46.91" width="60.15" height="9.07" transform="translate(429.23 -326.33) rotate(90)"/><rect class="cls-1" x="366.26" y="35.88" width="23.13" height="5.45" transform="translate(416.42 -339.23) rotate(90)"/><rect class="cls-4" x="303.19" y="52.63" width="60.15" height="9.07" transform="translate(610.47 -136.45) rotate(135.33)"/><rect class="cls-3" x="318.55" y="57.51" width="23.13" height="5.45" transform="translate(607.25 -128.99) rotate(135.33)"/><rect class="cls-5" x="342.7" y="50.99" width="45.69" height="15.41" transform="translate(424.24 -306.86) rotate(90)"/><rect class="cls-4" x="363.42" y="66.86" width="4.26" height="15.41" transform="translate(440.11 -290.99) rotate(90)"/><rect class="cls-4" x="364.72" y="61.11" width="1.65" height="15.41" transform="translate(434.36 -296.74) rotate(90)"/><rect class="cls-5" x="379.16" y="54.74" width="42.94" height="10.65" transform="translate(460.7 -340.56) rotate(90)"/><rect class="cls-4" x="398.63" y="69.66" width="4" height="10.65" transform="translate(475.61 -325.65) rotate(90)"/><rect class="cls-4" x="398.63" y="44.13" width="4" height="10.65" transform="translate(450.08 -351.18) rotate(90)"/><rect class="cls-4" x="399.85" y="49.64" width="1.55" height="10.65" transform="translate(455.6 -345.66) rotate(90)"/></g><g id="Table"><polygon class="cls-6" points="9.69 401.93 62.19 401.69 114.7 401.6 219.72 401.43 324.73 401.6 377.24 401.69 429.74 401.93 377.24 402.18 324.73 402.27 219.72 402.43 114.7 402.26 62.19 402.18 9.69 401.93"/></g><g id="Plant"><path class="cls-6" d="M378.84,313.57c14.57,14.26,17,36.33,14,55.66-.08.44-.76.32-.76-.09,0-4.4.13-8.76.12-13.11l-.23-.58c-3.8-2.77-7.3-5.89-9.46-10.17-2.44-4.79-3.39-10.19-5.25-15.19-.18-.47.33-.33.67-.09,8.86,6.54,11.69,13.57,14.23,23a78.17,78.17,0,0,0-1.54-14.63c-1.92-8.92-5.71-17.76-12.12-24.39C378.22,313.7,378.59,313.32,378.84,313.57Z"/><path class="cls-7" d="M376.1,315.23c-2.5.09-4.08,4.09-6,5.26a1.88,1.88,0,0,1-2.77-.43c-1.93-2.7.72-6,3.22-7.9-1.78.73-3.27,2-5.19,2.39a1.82,1.82,0,0,1-2.35-1.41c-.84-3.68,3.78-5.32,6.95-5.39-1.54-1.07-5.95-4-3.61-5.41s7.54,2.72,9.23,4.09c2.48,2,5.43,5,5.54,8.16C381.24,318.26,378,316,376.1,315.23Z"/><path class="cls-8" d="M376.1,315.23c-2.5.09-4.08,4.09-6,5.26a1.88,1.88,0,0,1-2.77-.43c-1.93-2.7.72-6,3.22-7.9-1.78.73-3.27,2-5.19,2.39a1.82,1.82,0,0,1-2.35-1.41c-.84-3.68,3.78-5.32,6.95-5.39-1.54-1.07-5.95-4-3.61-5.41s7.54,2.72,9.23,4.09c2.48,2,5.43,5,5.54,8.16C381.24,318.26,378,316,376.1,315.23Z"/><path class="cls-7" d="M376.83,315.85c-3.21-1.46-9.36.64-9.89-.57-1.06-2.47,3.86-4.17,6.52-4.49-2.45-.67-7.13-1.72-7-4.08.17-2.88,7.19-.4,10.74,2.32,4.47,3.43,4.44,6.73,3.7,7.4C379.89,317.34,377.36,316.09,376.83,315.85Z"/><path class="cls-6" d="M412,312.16c-15.1,13.7-18.38,35.66-16,55.09.06.44.75.35.76-.06.17-4.4.2-8.76.38-13.11.09-.19.16-.38.25-.57,3.9-2.62,7.52-5.61,9.84-9.81,2.62-4.69,3.78-10,5.83-15,.19-.47-.33-.35-.67-.11-9.1,6.19-12.19,13.11-15.09,22.41a78.26,78.26,0,0,1,2.09-14.57c2.26-8.84,6.38-17.53,13-23.9A.27.27,0,0,0,412,312.16Z"/><path class="cls-7" d="M414.7,313.92c2.5.18,3.92,4.25,5.82,5.49a1.88,1.88,0,0,0,2.78-.33c2-2.63-.49-6.06-2.91-8,1.76.8,3.19,2.15,5.1,2.59a1.8,1.8,0,0,0,2.39-1.31c1-3.65-3.56-5.47-6.73-5.66,1.58-1,6.09-3.75,3.81-5.26s-7.64,2.43-9.38,3.73c-2.55,1.91-5.62,4.8-5.85,7.94C409.45,316.75,412.74,314.62,414.7,313.92Z"/><path class="cls-8" d="M414.7,313.92c2.5.18,3.92,4.25,5.82,5.49a1.88,1.88,0,0,0,2.78-.33c2-2.63-.49-6.06-2.91-8,1.76.8,3.19,2.15,5.1,2.59a1.8,1.8,0,0,0,2.39-1.31c1-3.65-3.56-5.47-6.73-5.66,1.58-1,6.09-3.75,3.81-5.26s-7.64,2.43-9.38,3.73c-2.55,1.91-5.62,4.8-5.85,7.94C409.45,316.75,412.74,314.62,414.7,313.92Z"/><path class="cls-7" d="M414,314.51c3.26-1.33,9.33,1,9.9-.19,1.15-2.43-3.7-4.31-6.34-4.74,2.47-.57,7.19-1.44,7.14-3.81-.07-2.88-7.17-.67-10.82,1.91-4.6,3.26-4.69,6.56-4,7.25C410.83,315.88,413.41,314.73,414,314.51Z"/><path class="cls-6" d="M396.58,348.34A149.22,149.22,0,0,1,391.89,370a.54.54,0,0,1-1.05-.21c1-6.68,2.8-13.23,3.79-19.9a100.65,100.65,0,0,0,1.16-20.44c-.64-11.25-3.69-23.21-11-32-.16-.21.18-.51.34-.31,14.7,17.13,12.36,38.14,12.35,40,2.08-7.09,4.22-15.22,12.09-22.45.34-.31.61-.16.55.37-1.41,13.16-5.07,20-12.69,27.06Q397.07,345.27,396.58,348.34Z"/><path class="cls-7" d="M384.62,299.41c-2.64-1.18-6.29,2.19-8.9,2.42a2.17,2.17,0,0,1-2.65-1.85c-.65-3.77,3.78-5.89,7.31-6.57-2.22-.14-4.41.45-6.59-.14a2.09,2.09,0,0,1-1.73-2.63c1-4.25,6.6-3.63,9.92-2.11-1.05-1.88-4.16-7.11-1-7.42s6.45,6.62,7.51,8.89c1.56,3.33,3.11,7.93,1.65,11.25C388.43,305.13,386.24,301.18,384.62,299.41Z"/><path class="cls-8" d="M384.62,299.41c-2.64-1.18-6.29,2.19-8.9,2.42a2.17,2.17,0,0,1-2.65-1.85c-.65-3.77,3.78-5.89,7.31-6.57-2.22-.14-4.41.45-6.59-.14a2.09,2.09,0,0,1-1.73-2.63c1-4.25,6.6-3.63,9.92-2.11-1.05-1.88-4.16-7.11-1-7.42s6.45,6.62,7.51,8.89c1.56,3.33,3.11,7.93,1.65,11.25C388.43,305.13,386.24,301.18,384.62,299.41Z"/><path class="cls-7" d="M385.07,300.41c-2.6-3.12-10-4.05-10-5.57.14-3.09,6.1-2.37,9-1.38-2.21-1.92-6.54-5.37-5.2-7.74,1.63-2.9,7.66,3.19,10,7.8,2.92,5.81,1.22,9.23.12,9.55C387.5,303.5,385.49,300.93,385.07,300.41Z"/><path class="cls-7" d="M406.25,352.3l6.48,49.52H373.29c.81-4.39,8.15-49.58,8.15-49.58Z"/></g><g id="Device"><path class="cls-6" d="M344.38,11.7H172.06a17.59,17.59,0,0,0-17.43,17.76V384.17a17.61,17.61,0,0,0,17.43,17.76H344.38a17.62,17.62,0,0,0,17.45-17.76V29.46A17.61,17.61,0,0,0,344.38,11.7Zm6.54,361.51c0,9.33-7,16.89-15.61,16.89H181.15c-8.64,0-15.63-7.56-15.63-16.89V42.9c0-19,7-19.94,15.63-19.94H212c1.79,0,3.26,2,3.26,4.56v1.09c0,5.93,3.24,6,7.22,6h71.41c4,0,7.23,0,7.23-6V27.52c0-2.53,1.45-4.56,3.27-4.56h30.88c8.62,0,15.61,2.52,15.61,19.94Z"/><line class="cls-9" x1="165.52" y1="352.27" x2="164.94" y2="352.27"/><path class="cls-2" d="M350.93,42.9V373.21c0,9.33-7,16.89-15.61,16.89H181.16c-8.64,0-15.63-7.56-15.63-16.89V42.9c0-19,7-19.94,15.63-19.94h30.89c1.79,0,3.26,2,3.26,4.56v1.09c0,5.93,3.24,6,7.22,6h71.41c4,0,7.23,0,7.23-6V27.52c0-2.53,1.45-4.56,3.27-4.56h30.88C343.94,23,350.93,25.48,350.93,42.9Z"/><path class="cls-7" d="M350.93,42.91v30H165.53v-30c0-19,7-19.95,15.63-19.95h30.89c1.79,0,3.26,2,3.26,4.57v1.09c0,5.92,3.24,5.94,7.22,5.94h71.41c4,0,7.23,0,7.23-5.94V27.53c0-2.53,1.45-4.57,3.27-4.57h30.88C343.94,23,350.93,25.49,350.93,42.91Z"/><path class="cls-2" d="M268,26.87H248.49a1.21,1.21,0,0,1-1.21-1.2h0a1.21,1.21,0,0,1,1.21-1.21H268a1.21,1.21,0,0,1,1.2,1.21h0A1.2,1.2,0,0,1,268,26.87Z"/><rect class="cls-2" x="177.61" y="51.2" width="16.09" height="10.2"/><path class="cls-7" d="M193.7,51.2c-.65.63-1.31,1.22-2,1.83l-2,1.79c-.69.62-1.39,1.23-2.09,1.84l-.06.06-1.85,1.61-.09.07-.09-.07-1.85-1.61-.07-.06-2.09-1.84-2-1.79c-.66-.61-1.32-1.2-2-1.83l2.06,1.64,2,1.68c.75.62,1.5,1.26,2.25,1.9h0l1.69,1.44,1.69-1.44h0c.75-.64,1.5-1.28,2.26-1.9s1.36-1.13,2-1.68S193,51.74,193.7,51.2Z"/><path class="cls-7" d="M184,56.65l0,0-.25.21c-.41.34-.82.67-1.24,1s-1,.76-1.56,1.14l-1.61,1.07c-.54.35-1.09.69-1.66,1,.49-.43,1-.83,1.51-1.21s1-.77,1.56-1.14,1.07-.73,1.61-1.08.87-.55,1.32-.81l.31-.17Z"/><path class="cls-7" d="M193.66,61.08c-.56-.31-1.11-.65-1.66-1s-1.07-.71-1.6-1.07-1.05-.75-1.57-1.14-.83-.64-1.23-1l-.25-.22,0,0h0l.31.18c.45.26.89.53,1.33.81s1.07.71,1.6,1.08,1,.74,1.56,1.14S193.18,60.65,193.66,61.08Z"/><path class="cls-10" d="M197.16,51.2a3.46,3.46,0,1,1-3.46-3.45A3.46,3.46,0,0,1,197.16,51.2Z"/><path class="cls-2" d="M194.84,51.89a.27.27,0,0,1-.28.27h-.05v.38a.27.27,0,0,1-.54,0v-.38h-1.56a.26.26,0,0,1-.17,0,.27.27,0,0,1-.05-.39L194,49.44h0a0,0,0,0,0,0,0h0l0,0h.25l0,0,0,0h0l0,0s0,0,0,0l0,0a0,0,0,0,0,0,0v0s0,0,0,0v2h.05A.27.27,0,0,1,194.84,51.89ZM194,50.4l-1,1.22h1Z"/><g id="u5Zjqx"><path class="cls-2" d="M206.71,30.08l-.3.3c-.06.06-.12.11-.17.17a4.07,4.07,0,0,0-5.75,0c-.06-.05-.11-.11-.16-.16l-.3-.3h0l0,0c.13-.11.25-.23.38-.33a4,4,0,0,1,.87-.56,4.41,4.41,0,0,1,1.16-.39l.58-.08h.5l.4,0A4.44,4.44,0,0,1,205,29a4.69,4.69,0,0,1,.72.33,4.63,4.63,0,0,1,.68.48l.32.29Z"/><path class="cls-2" d="M201.43,31.49,201,31a3.3,3.3,0,0,1,1.92-1,3.38,3.38,0,0,1,2.88,1l-.47.47a2.74,2.74,0,0,0-3.86,0Z"/><path class="cls-2" d="M204.82,32l-.47.47a1.35,1.35,0,0,0-1-.41,1.38,1.38,0,0,0-1,.41l-.46-.47A2,2,0,0,1,204.82,32Z"/><path class="cls-2" d="M203.79,32.85a.43.43,0,1,1-.85,0,.43.43,0,0,1,.85,0Z"/></g><path class="cls-2" d="M177.61,31a1.23,1.23,0,1,1,1.23,1.22A1.23,1.23,0,0,1,177.61,31Z"/><path class="cls-2" d="M181.48,31a1.23,1.23,0,1,1,1.23,1.22A1.23,1.23,0,0,1,181.48,31Z"/><path class="cls-2" d="M185.35,31a1.23,1.23,0,1,1,1.23,1.22A1.23,1.23,0,0,1,185.35,31Z"/><path class="cls-2" d="M189.22,31a1.23,1.23,0,1,1,1.23,1.22A1.23,1.23,0,0,1,189.22,31Z"/><path class="cls-2" d="M193.09,31a1.23,1.23,0,1,1,1.23,1.22A1.23,1.23,0,0,1,193.09,31Z"/><path class="cls-2" d="M337,33.67H327V29h10Zm-9.49-.51h9V29.54h-9Z"/><rect class="cls-2" x="327.85" y="29.82" width="6.45" height="3.06"/><rect class="cls-2" x="337.02" y="30.11" width="0.89" height="2.48"/><path class="cls-2" d="M242.28,53.18a.59.59,0,0,1,.6-.6.61.61,0,0,1,.61.6v6.41a.61.61,0,0,1-.61.6.59.59,0,0,1-.6-.6Z"/><path class="cls-2" d="M246.72,59.59a.61.61,0,0,1-.59.6.6.6,0,0,1-.6-.6V53.28h0a.58.58,0,0,1,.24-.5.59.59,0,0,1,.83.13l3.51,4.85V53.28a.59.59,0,0,1,.58-.59.6.6,0,0,1,.6.59v6.31a.6.6,0,0,1-.6.6.59.59,0,0,1-.44-.22s-.05,0-.06-.06l-3.47-4.83Z"/><path class="cls-2" d="M253.91,59.59V53.18a.59.59,0,0,1,.59-.6h1.55a2.06,2.06,0,0,1,2.06,2.07,2,2,0,0,1-.41,1.23,2.37,2.37,0,0,1,1.1,2,2.33,2.33,0,0,1-2.33,2.34h-2A.6.6,0,0,1,253.91,59.59Zm1.2-4.06h.94a.88.88,0,0,0,.86-.88.85.85,0,0,0-.86-.86h-.94Zm0,3.45h1.36a1.13,1.13,0,0,0,0-2.25h-1.36Z"/><path class="cls-2" d="M266.37,53.53a4,4,0,0,1,0,5.5,3.58,3.58,0,0,1-2.6,1.16A3.69,3.69,0,0,1,261.11,59a4,4,0,0,1,0-5.5,3.62,3.62,0,0,1,2.66-1.17A3.52,3.52,0,0,1,266.37,53.53Zm-.14,2.75a2.87,2.87,0,0,0-.74-1.91,2.35,2.35,0,0,0-3.48,0,2.77,2.77,0,0,0-.74,1.91,2.7,2.7,0,0,0,.74,1.89,2.33,2.33,0,0,0,3.48,0A2.79,2.79,0,0,0,266.23,56.28Z"/><path class="cls-2" d="M274.51,53.61l-2.06,2.81,2.06,2.82a.6.6,0,0,1-.47.95.63.63,0,0,1-.49-.25l-1.83-2.51-1.84,2.51a.62.62,0,0,1-.48.25.5.5,0,0,1-.34-.12.58.58,0,0,1-.14-.83L271,56.42l-2.06-2.81a.57.57,0,0,1,.14-.82.55.55,0,0,1,.82.13l1.84,2.5,1.83-2.5a.56.56,0,0,1,.83-.13A.58.58,0,0,1,274.51,53.61Z"/><path class="cls-2" d="M325.4,60.13l-1.26.95L321.81,58,321,56.88a2,2,0,0,0,.49-.28,2.1,2.1,0,0,0,.65-.84L323,57Z"/><path class="cls-2" d="M322.92,52.88a3.47,3.47,0,1,0-.64,4.81A3.11,3.11,0,0,0,323,57,3.42,3.42,0,0,0,322.92,52.88Zm-1.48,3.72a2,2,0,0,1-.49.28,2.05,2.05,0,1,1,1.14-1.12A2.1,2.1,0,0,1,321.44,56.6Z"/><rect class="cls-2" x="299.15" y="51.73" width="9.14" height="9.14"/><rect class="cls-7" x="303.22" y="53.43" width="1" height="5.75"/><rect class="cls-7" x="303.22" y="53.43" width="1" height="5.75" transform="translate(247.42 360.03) rotate(-90)"/><path class="cls-2" d="M337,52.32a.79.79,0,1,1-.79-.79A.79.79,0,0,1,337,52.32Z"/><path class="cls-2" d="M337,56.42a.79.79,0,1,1-.79-.79A.79.79,0,0,1,337,56.42Z"/><path class="cls-2" d="M337,60.52a.79.79,0,1,1-.79-.79A.79.79,0,0,1,337,60.52Z"/><rect class="cls-1" x="165.53" y="72.87" width="185.4" height="28.63"/><path class="cls-7" d="M195.66,92.72a6.5,6.5,0,1,1,2.9-7.07A6.5,6.5,0,0,1,195.66,92.72Z"/><path class="cls-2" d="M194.22,86.45a2,2,0,1,1-2-2A2,2,0,0,1,194.22,86.45Z"/><path class="cls-2" d="M195.66,91.9v.82a6.47,6.47,0,0,1-6.84,0V91.9a3.42,3.42,0,1,1,6.84,0Z"/><polygon class="cls-2" points="233.07 91.49 224.47 91.49 227.98 87.19 224.47 82.89 233.07 82.89 236.58 87.19 233.07 91.49"/><polygon class="cls-7" points="210.98 82.89 212.37 85.72 215.5 86.17 213.24 88.38 213.77 91.49 210.98 90.02 208.18 91.49 208.72 88.38 206.45 86.17 209.58 85.72 210.98 82.89"/><rect class="cls-6" x="242.75" y="85.44" width="50.74" height="3.5"/><rect class="cls-10" x="314.41" y="85.44" width="19.89" height="3.5"/><path class="cls-10" d="M195.66,121.35a6.5,6.5,0,1,1,2.9-7.07A6.5,6.5,0,0,1,195.66,121.35Z"/><path class="cls-2" d="M194.22,115.08a2,2,0,1,1-2-2A2,2,0,0,1,194.22,115.08Z"/><path class="cls-2" d="M195.66,120.53v.82a6.47,6.47,0,0,1-6.84,0v-.82a3.42,3.42,0,0,1,6.84,0Z"/><polygon class="cls-11" points="233.07 120.12 224.47 120.12 227.98 115.82 224.47 111.52 233.07 111.52 236.58 115.82 233.07 120.12"/><polygon class="cls-7" points="210.98 111.52 212.37 114.35 215.5 114.81 213.24 117.01 213.77 120.12 210.98 118.65 208.18 120.12 208.72 117.01 206.45 114.81 209.58 114.35 210.98 111.52"/><rect class="cls-6" x="242.75" y="114.07" width="50.74" height="3.5"/><rect class="cls-10" x="314.41" y="114.07" width="19.89" height="3.5"/><rect class="cls-1" x="165.53" y="130.14" width="185.4" height="28.63"/><path class="cls-7" d="M195.66,150a6.5,6.5,0,1,1,2.9-7.07A6.5,6.5,0,0,1,195.66,150Z"/><path class="cls-2" d="M194.22,143.71a2,2,0,1,1-2-2A2,2,0,0,1,194.22,143.71Z"/><path class="cls-2" d="M195.66,149.17V150a6.47,6.47,0,0,1-6.84,0v-.81a3.42,3.42,0,1,1,6.84,0Z"/><polygon class="cls-2" points="233.07 148.75 224.47 148.75 227.98 144.45 224.47 140.15 233.07 140.15 236.58 144.45 233.07 148.75"/><polygon class="cls-2" points="210.98 140.15 212.37 142.98 215.5 143.44 213.24 145.64 213.77 148.75 210.98 147.28 208.18 148.75 208.72 145.64 206.45 143.44 209.58 142.98 210.98 140.15"/><rect class="cls-3" x="242.75" y="142.7" width="50.74" height="3.5"/><rect class="cls-4" x="314.41" y="142.7" width="19.89" height="3.5"/><path class="cls-5" d="M195.66,178.61a6.5,6.5,0,1,1,2.9-7.07A6.5,6.5,0,0,1,195.66,178.61Z"/><path class="cls-2" d="M194.22,172.34a2,2,0,1,1-2-2A2,2,0,0,1,194.22,172.34Z"/><path class="cls-2" d="M195.66,177.8v.81a6.47,6.47,0,0,1-6.84,0v-.81a3.42,3.42,0,1,1,6.84,0Z"/><polygon class="cls-11" points="233.07 177.38 224.47 177.38 227.98 173.08 224.47 168.78 233.07 168.78 236.58 173.08 233.07 177.38"/><polygon class="cls-7" points="210.98 168.78 212.37 171.61 215.5 172.07 213.24 174.27 213.77 177.38 210.98 175.91 208.18 177.38 208.72 174.27 206.45 172.07 209.58 171.61 210.98 168.78"/><rect class="cls-3" x="242.75" y="171.33" width="50.74" height="3.5"/><rect class="cls-4" x="314.41" y="171.33" width="19.89" height="3.5"/><rect class="cls-1" x="165.53" y="187.4" width="185.4" height="28.63"/><path class="cls-12" d="M195.66,207.24a6.24,6.24,0,0,1-1.87.79,6.52,6.52,0,1,1,1.87-.79Z"/><path class="cls-2" d="M194.22,201a2,2,0,1,1-2-2A2,2,0,0,1,194.22,201Z"/><path class="cls-2" d="M195.66,206.43v.81a6.24,6.24,0,0,1-1.87.79,6.47,6.47,0,0,1-5-.79v-.81a3.42,3.42,0,1,1,6.84,0Z"/><polygon class="cls-2" points="233.07 206.01 224.47 206.01 227.98 201.71 224.47 197.41 233.07 197.41 236.58 201.71 233.07 206.01"/><polygon class="cls-7" points="210.98 197.41 212.37 200.24 215.5 200.7 213.24 202.9 213.77 206.01 210.98 204.54 208.18 206.01 208.72 202.9 206.45 200.7 209.58 200.24 210.98 197.41"/><rect class="cls-3" x="242.75" y="199.96" width="50.74" height="3.5"/><rect class="cls-4" x="314.41" y="199.96" width="19.89" height="3.5"/><path class="cls-1" d="M350.93,359.18v14a17.15,17.15,0,0,1-7.78,14.61H173.31a17.14,17.14,0,0,1-7.78-14.61v-14Z"/><path class="cls-7" d="M195.66,379a6.5,6.5,0,1,1,2.9-7.07A6.5,6.5,0,0,1,195.66,379Z"/><path class="cls-2" d="M194.22,372.76a2,2,0,1,1-2-2A2,2,0,0,1,194.22,372.76Z"/><path class="cls-2" d="M195.66,378.22V379a6.47,6.47,0,0,1-6.84,0v-.81a3.42,3.42,0,1,1,6.84,0Z"/><polygon class="cls-2" points="233.07 377.8 224.47 377.8 227.98 373.5 224.47 369.2 233.07 369.2 236.58 373.5 233.07 377.8"/><polygon class="cls-7" points="210.98 369.2 212.37 372.03 215.5 372.49 213.24 374.69 213.77 377.8 210.98 376.33 208.18 377.8 208.72 374.69 206.45 372.49 209.58 372.03 210.98 369.2"/><rect class="cls-3" x="242.75" y="371.75" width="50.74" height="3.5"/><rect class="cls-4" x="314.41" y="371.75" width="19.89" height="3.5"/><path class="cls-6" d="M195.66,235.88a6.22,6.22,0,0,1-1.87.78,6.49,6.49,0,1,1,1.87-.78Z"/><path class="cls-2" d="M194.22,229.6a2,2,0,1,1-2-2A2,2,0,0,1,194.22,229.6Z"/><path class="cls-2" d="M195.66,235.06v.82a6.22,6.22,0,0,1-1.87.78,6.47,6.47,0,0,1-5-.79v-.81a3.42,3.42,0,1,1,6.84,0Z"/><polygon class="cls-11" points="233.07 234.65 224.47 234.65 227.98 230.34 224.47 226.04 233.07 226.04 236.58 230.34 233.07 234.65"/><polygon class="cls-11" points="210.98 226.04 212.37 228.88 215.5 229.33 213.24 231.53 213.77 234.65 210.98 233.18 208.18 234.65 208.72 231.53 206.45 229.33 209.58 228.88 210.98 226.04"/><rect class="cls-3" x="242.75" y="228.6" width="50.74" height="3.5"/><rect class="cls-4" x="314.41" y="228.6" width="19.89" height="3.5"/><rect class="cls-1" x="165.53" y="244.66" width="185.4" height="28.63"/><path class="cls-7" d="M195.66,264.51a6.22,6.22,0,0,1-1.87.78,6.49,6.49,0,1,1,1.87-.78Z"/><path class="cls-2" d="M194.22,258.23a2,2,0,1,1-2-2A2,2,0,0,1,194.22,258.23Z"/><path class="cls-2" d="M195.66,263.69v.82a6.22,6.22,0,0,1-1.87.78,6.47,6.47,0,0,1-5-.79v-.81a3.42,3.42,0,1,1,6.84,0Z"/><polygon class="cls-2" points="233.07 263.28 224.47 263.28 227.98 258.98 224.47 254.68 233.07 254.68 236.58 258.98 233.07 263.28"/><polygon class="cls-7" points="210.98 254.68 212.37 257.51 215.5 257.96 213.24 260.17 213.77 263.28 210.98 261.81 208.18 263.28 208.72 260.17 206.45 257.96 209.58 257.51 210.98 254.68"/><rect class="cls-6" x="242.75" y="257.23" width="50.74" height="3.5"/><rect class="cls-10" x="314.41" y="257.23" width="19.89" height="3.5"/><path class="cls-7" d="M195.66,293.14a6.22,6.22,0,0,1-1.87.78,6.49,6.49,0,1,1,1.87-.78Z"/><path class="cls-2" d="M194.22,286.86a2,2,0,1,1-2-2A2,2,0,0,1,194.22,286.86Z"/><path class="cls-2" d="M195.66,292.32v.82a6.22,6.22,0,0,1-1.87.78,6.51,6.51,0,0,1-5-.78v-.82a3.42,3.42,0,1,1,6.84,0Z"/><polygon class="cls-11" points="233.07 291.91 224.47 291.91 227.98 287.61 224.47 283.31 233.07 283.31 236.58 287.61 233.07 291.91"/><polygon class="cls-11" points="210.98 283.31 212.37 286.14 215.5 286.59 213.24 288.8 213.77 291.91 210.98 290.44 208.18 291.91 208.72 288.8 206.45 286.59 209.58 286.14 210.98 283.31"/><rect class="cls-3" x="242.75" y="285.86" width="50.74" height="3.5"/><rect class="cls-4" x="314.41" y="285.86" width="19.89" height="3.5"/><rect class="cls-1" x="165.53" y="301.92" width="185.4" height="28.63"/><path class="cls-10" d="M195.66,321.77a6.22,6.22,0,0,1-1.87.78,6.49,6.49,0,1,1,1.87-.78Z"/><path class="cls-2" d="M194.22,315.5a2,2,0,1,1-2-2A2,2,0,0,1,194.22,315.5Z"/><path class="cls-2" d="M195.66,321v.82a6.22,6.22,0,0,1-1.87.78,6.47,6.47,0,0,1-5-.78V321a3.42,3.42,0,1,1,6.84,0Z"/><polygon class="cls-2" points="233.07 320.54 224.47 320.54 227.98 316.24 224.47 311.94 233.07 311.94 236.58 316.24 233.07 320.54"/><polygon class="cls-2" points="210.98 311.94 212.37 314.77 215.5 315.22 213.24 317.43 213.77 320.54 210.98 319.07 208.18 320.54 208.72 317.43 206.45 315.22 209.58 314.77 210.98 311.94"/><rect class="cls-3" x="242.75" y="314.49" width="50.74" height="3.5"/><rect class="cls-4" x="314.41" y="314.49" width="19.89" height="3.5"/><path class="cls-5" d="M195.66,350.4a6.5,6.5,0,1,1,2.9-7.07A6.5,6.5,0,0,1,195.66,350.4Z"/><path class="cls-2" d="M194.22,344.13a2,2,0,1,1-2-2A2,2,0,0,1,194.22,344.13Z"/><path class="cls-2" d="M195.66,349.58v.82a6.47,6.47,0,0,1-6.84,0v-.82a3.42,3.42,0,0,1,6.84,0Z"/><polygon class="cls-11" points="233.07 349.17 224.47 349.17 227.98 344.87 224.47 340.57 233.07 340.57 236.58 344.87 233.07 349.17"/><polygon class="cls-11" points="210.98 340.57 212.37 343.4 215.5 343.86 213.24 346.06 213.77 349.17 210.98 347.7 208.18 349.17 208.72 346.06 206.45 343.86 209.58 343.4 210.98 340.57"/><rect class="cls-3" x="242.75" y="343.12" width="50.74" height="3.5"/><rect class="cls-4" x="314.41" y="343.12" width="19.89" height="3.5"/></g><g id="Character"><path class="cls-12" d="M194.44,402.13H113.26c-9.71-34.07-17.51-60-17.51-60h76.92S182.23,367.81,194.44,402.13Z"/><path class="cls-6" d="M125.15,402.13h-1.67c-4.81-16.06-9.81-32.05-14.71-48.08a.18.18,0,0,1,.34-.1q1.53,4.17,3,8.35C116.79,375.46,121.09,388.76,125.15,402.13Z"/><path class="cls-12" d="M171,342.15c-.09,1.61-4.39,16.34-6.61,38.38-.81,8.13-1.72,15.78-2.71,21.6H53.92c-10.66-32.95,5.15-60,5.15-60S171,342.09,171,342.15Z"/><path class="cls-6" d="M149.43,378.63c.38,5.53.5,11.07.44,16.6a49.55,49.55,0,0,0-.06,6.9h-1.87c-.45-3.52,0-7.89,0-11.33-.06-14.3-1.88-28.43-4.08-42.53a.26.26,0,0,1,.51-.11A149.69,149.69,0,0,1,149.43,378.63Z"/><path class="cls-6" d="M162.78,385.77c-.09,2.94-.89,10.77-3.2,16.36H158c3.14-7.64,2.95-22.53,2.73-26a305.38,305.38,0,0,0-3.18-30.52c-.06-.34.51-.36.58-.05C161.14,358.51,163.2,372.47,162.78,385.77Z"/><path class="cls-6" d="M60.56,356.45c-3.12,13.49-1.6,28,1.38,41.35.32,1.45.67,2.89,1,4.33H61.32c-4.4-18.62-5.76-37.88,2-55.92.1-.23.43,0,.34.18A69.59,69.59,0,0,0,60.56,356.45Z"/><path class="cls-12" d="M239.41,145.44l-17.66,56.31c-.7,1.64.06,3.05,1.71,3.14l29.48,1.69a4.8,4.8,0,0,0,4.26-2.81l17.66-56.3c.71-1.65-.06-3.05-1.71-3.15l-29.47-1.68A4.78,4.78,0,0,0,239.41,145.44Z"/><path class="cls-10" d="M242.91,145.61l-17.66,56.3c-.7,1.65.06,3.06,1.71,3.15l29.48,1.68a4.77,4.77,0,0,0,4.26-2.8l17.66-56.3c.71-1.65-.06-3.06-1.7-3.15l-29.48-1.68A4.78,4.78,0,0,0,242.91,145.61Z"/><path class="cls-6" d="M250.85,148.68a2.51,2.51,0,1,1-2.31-2.7A2.52,2.52,0,0,1,250.85,148.68Z"/><path class="cls-13" d="M139.45,226.51c14.33,36.61,48.72,85.19,64.19,86.42,7.36.58,20.4,3.21,30.63-4.62,22.32-17.08,42.29-51.25,47.23-71.25,1.75-7.11-32.22-25-37.78-19.49-13,12.92-28.86,38.92-31,38.61-7.89-1.12-37.18-29-57.62-48.59C130.3,183.79,133.74,211.93,139.45,226.51Z"/><path class="cls-13" d="M284.82,199.94c-2.74-14.86-5.73-18.25-1.38-32,2.85-9-1.69-14.73-8.69-7.79-11.43,11.34-11.92,31.25-10.11,38.2Z"/><path class="cls-13" d="M279.37,243.22s7.87-19.93,6.51-36.05C285,196,280.21,172,250.14,157.51c-7.14-3.44-19.74-3.28-10.13,6.57,6.83,7,13.27,9.37,16.5,14.16,0,0-16,2.1-19.17,9.38a146,146,0,0,0-6.92,19.62,31.26,31.26,0,0,0,3.56,1.62s-2.75,6.91,1.82,17.27Z"/><path class="cls-13" d="M283.29,196.68c-4.21-4.08-13.28-12.57-23.11-16.94-10.93-4.85-33.28-11.25-36.78-3.15-2.56,5.94,5.75,9.14,5.75,9.14s-9.79-.7-10.94,5.17c-1,5.35,5.55,7.44,5.55,7.44s-6,.6-6,5.95c0,6.43,12.6,4.12,18.22,10.65C237.21,216.4,283.29,196.68,283.29,196.68Z"/><path class="cls-6" d="M257,192.14c-4.59-3.19-16.87-7.75-27.63-6.56-.24,0-.35.22-.12.24a118.15,118.15,0,0,1,27.7,6.42C257,192.27,257,192.18,257,192.14Z"/><path class="cls-6" d="M251.76,203c-4.24-2.35-17.11-6.48-28-4.91-.24,0-.34.24-.11.26a125.59,125.59,0,0,1,28,4.75C251.78,203.15,251.81,203.06,251.76,203Z"/><path class="cls-7" d="M184.17,229.49l-5.49,6.64-1.12,1.37-21.84,26.42s-19.79-32.32-23.78-50.7c-2.4-11-.68-17.55,4.14-18.74a6.24,6.24,0,0,1,1.08-.16c3.11-.27,7.29,1.37,12.29,5.06C163.52,209.78,184.17,229.49,184.17,229.49Z"/><path class="cls-2" d="M183,228.35a37.89,37.89,0,0,1-1.86,4.85l3-3.6h0a.38.38,0,0,0,0-.13C184,229.34,183.6,229,183,228.35Zm-33.59-29a27.57,27.57,0,0,0-5.3,4.39,27,27,0,0,0-7.49,18.72A49.3,49.3,0,0,0,137,228q.72,1.71,1.5,3.42c-.09-.73-.2-1.47-.29-2.22a38.25,38.25,0,0,1-.17-12.08,26.53,26.53,0,0,1,3.56-8.91,28.1,28.1,0,0,1,8.25-8.57l-.35-.26Z"/><path class="cls-6" d="M151.46,252.93c1.19-2.78,13.34-19.47,23.46-30.07a.17.17,0,0,1,.26.23c-1,1.3-21,28.11-23.36,30.14C151.63,253.4,151.38,253.13,151.46,252.93Z"/><path class="cls-14" d="M169.69,247l-14,16.89s-19.8-32.32-23.79-50.7c-2.76-12.68-.07-19.41,6.5-18.91Z"/><path class="cls-7" d="M173.67,346.59c-2.81,3-121.2,15.65-121.87,14.84-1.82-2.21,9.07-121.87,57.58-165.7,8.55-7.72,23.64-5.52,30.64-1.55,3.5,2,9.57,18.52,15.53,37.83C160.1,246.76,175.43,344.65,173.67,346.59Z"/><path class="cls-7" d="M173.67,346.59c-.62.67-7,1.83-16.54,3.21l-1.08.15c-4.82.69-10.38,1.43-16.38,2.19l-1.29.16c-17.13,2.15-37.57,4.45-54.28,6.21l-.55.05c-18,1.9-31.53,3.15-31.76,2.87-.35-.43-.23-5.28.56-13.14,0-.33.08-.67.11-1,1.88-18.17,7.13-51.18,17.79-83.11.16-.51.34-1,.52-1.55A244.84,244.84,0,0,1,82,234.71c.12-.27.25-.53.38-.8a150.61,150.61,0,0,1,15.21-25.24c.2-.25.38-.5.59-.75a92.07,92.07,0,0,1,11.16-12.19,18.11,18.11,0,0,1,3.76-2.59c.31-.16.63-.31,1-.45a27.43,27.43,0,0,1,13.51-2l1.14.11A30.54,30.54,0,0,1,140,194.18c1.37.79,3.16,3.82,5.17,8.4l.28.64c3,7,6.58,17.44,10.08,28.79,1.23,4,3.27,14.2,5.54,26.92,0,.28.11.57.16.86.79,4.39,1.59,9.09,2.4,13.93.13.69.24,1.37.36,2.07,1.64,9.87,3.29,20.26,4.76,29.93.06.39.12.79.18,1.17,1.25,8.28,2.34,16,3.19,22.39.07.51.13,1,.19,1.5C173.51,340,174.09,346.12,173.67,346.59Z"/><path class="cls-2" d="M135.19,335a25.73,25.73,0,0,0-7.54-7,28.7,28.7,0,0,0-10.34-3.55c-3.83-.66-7.84-1-11.42-2.66-3.42-1.55-5.81-4.32-8.21-7.1-.62-.74-1.27-1.47-1.94-2.17.76-.51,1.52-1,2.29-1.5,4.49-2.77,9.46-4.85,13.61-8.13a20.56,20.56,0,0,0,7.43-11.67,23.91,23.91,0,0,0-1-13.7,26.74,26.74,0,0,0-8.41-11.19,36.27,36.27,0,0,0-27.29-7.08,40,40,0,0,0-11.58,3.38c-.18.52-.36,1-.52,1.55a38.61,38.61,0,0,1,5.51-2.25,36.82,36.82,0,0,1,27.76,1.95,28.9,28.9,0,0,1,10.5,8.88,23.13,23.13,0,0,1,4.29,12.7,20.26,20.26,0,0,1-3.67,12.64c-3,4.07-7.57,6.53-11.91,8.88-2.67,1.46-5.28,3-7.81,4.71a15.58,15.58,0,0,0-5.16-3.54,14.8,14.8,0,0,0-10-.06c-7.09,2.37-11.23,9.16-12,16.34a27.87,27.87,0,0,0,1.36,11.84,53.47,53.47,0,0,1-9.79,7.9,30.35,30.35,0,0,1-6.84,3.12c0,.35-.08.69-.11,1,.44-.11.86-.25,1.29-.39,6.13-2.08,11.23-6.06,15.83-10.53a48.14,48.14,0,0,0,5,9.87,71.14,71.14,0,0,0,9.09,11.32l.55-.05a72.48,72.48,0,0,1-5.54-6.58,56.17,56.17,0,0,1-8.43-15.21c1.71-1.7,3.36-3.46,5-5.22,3.16-3.44,6.27-6.95,9.64-10.21a79.18,79.18,0,0,1,10.13-8.23c2.16,2.29,4,4.88,6.35,7a20.23,20.23,0,0,0,9.62,4.41c3.67.77,7.44,1.08,11.05,2.19a23.09,23.09,0,0,1,8.66,5,23.84,23.84,0,0,1,8,17.73,22.4,22.4,0,0,1-.22,2.95l1.29-.16A24.32,24.32,0,0,0,135.19,335ZM89.41,315.68a99.25,99.25,0,0,0-10.64,10.17c-3,3.22-5.89,6.59-9,9.74a30.78,30.78,0,0,1-1.14-5.44c-.78-7,1.36-15,7.37-19.19a15.33,15.33,0,0,1,9.43-2.78,13.12,13.12,0,0,1,8.65,4.06C92.5,313.33,90.92,314.46,89.41,315.68Zm79.36-10c-3.46,2.77-6.74,5.79-10.61,8-5.58,3.19-13.23,4.88-18.3-.17a11.84,11.84,0,0,1-1-15.9c2-2.8,4.47-5.15,6.41-8a49.5,49.5,0,0,0,4.16-7.51,11.78,11.78,0,0,0,7.57-.27,14.12,14.12,0,0,0,7-6.11c-.12-.7-.23-1.38-.36-2.07a16.74,16.74,0,0,1-3,4.18,10.9,10.9,0,0,1-8.74,3.41A11.25,11.25,0,0,1,150,281c.14-.31.29-.63.42-.95,2.81-6.43,5.17-13.22,9.58-18.78.4-.5.81-1,1.26-1.44-.05-.29-.11-.58-.16-.86-4.16,4.32-6.83,9.94-9.2,15.37-.94,2.13-1.85,4.28-2.84,6.39a15.37,15.37,0,0,1-5.87-3.76c-5.44-5.53-5.84-14.07-5.28-21.35.35-4.44,1-8.86,1.21-13.3a74.56,74.56,0,0,0-1-13.09,38.25,38.25,0,0,1-.17-12.08,27.89,27.89,0,0,1,7.48-13.89l-.28-.64c-.39.36-.76.73-1.12,1.12a27,27,0,0,0-7.49,18.72c0,4.56.91,9.05,1.27,13.59a71.86,71.86,0,0,1-.68,14c-.93,8.09-1.76,17,2.46,24.37a17.18,17.18,0,0,0,8.88,7.51c-.47,1-1,2-1.48,2.93a44.94,44.94,0,0,1-3.08,4.92c-1.06,1.46-2.27,2.82-3.45,4.19-2.17,2.53-4.37,5.29-5.05,8.64a13,13,0,0,0,1.27,8.41,12.35,12.35,0,0,0,6.17,5.88,15.15,15.15,0,0,0,10.14.27c6.26-1.83,10.95-6.24,15.92-10.22C168.89,306.51,168.83,306.11,168.77,305.72Zm3.56,25.06c-3.14-2.5-6.51-5-10.63-5.33a8.45,8.45,0,0,0-5.72,1.41,9.58,9.58,0,0,0-3.28,4.49,17.39,17.39,0,0,0,.45,12.32,20.62,20.62,0,0,0,4,6.13l-1.08.15a21.65,21.65,0,0,1-2.91-4,19.56,19.56,0,0,1-2.25-6.64c-.61-4,0-8.6,2.66-11.86,2.9-3.51,7.6-3.88,11.66-2.39a25.35,25.35,0,0,1,6.93,4.19C172.21,329.79,172.27,330.29,172.33,330.78ZM127.75,192.34c.35-.5.68-1,1-1.54l-1.14-.11a50.67,50.67,0,0,1-8.21,9.68l-.62.59a20.92,20.92,0,0,0-2.92-6.19,16.55,16.55,0,0,0-1.76-2.08c-.32.14-.64.29-1,.45a18.46,18.46,0,0,1,4.53,7.59c.1.33.2.67.28,1a31.86,31.86,0,0,1-9.35,6.43c-3.29,1.32-7.29,1.59-10.38-.23-.21.25-.39.5-.59.75a11.91,11.91,0,0,0,8.45,1.31c4.58-.87,8.5-3.9,11.93-6.9l.23-.21c1.44,6.18.9,12.7,1.88,19,1.11,7.18,4.55,14.42,2.78,21.76a12.74,12.74,0,0,1-4.43,7.31A10.34,10.34,0,0,1,109,252c-7.08-2.27-11.21-9-17.06-13.14a60,60,0,0,0-9.49-5c-.13.27-.26.53-.38.8,2,.95,4,1.84,5.81,2.85A31.9,31.9,0,0,1,92,240.15,49,49,0,0,1,96.27,244c2.72,2.64,5.37,5.45,8.68,7.38,3,1.75,6.58,2.86,10.07,2.19a10.8,10.8,0,0,0,7.11-5.3,17.67,17.67,0,0,0,2.27-8.86c0-4-1.09-8-2.05-11.87a59.79,59.79,0,0,1-1.32-6.25c-.26-1.85-.4-3.72-.52-5.59a108,108,0,0,0-.91-11.07c-.15-.85-.31-1.69-.52-2.53A58.63,58.63,0,0,0,127.75,192.34Z"/><path class="cls-13" d="M97.9,212.44C78.42,253,52.32,353.79,48.49,368.61c-2.6,10.06,49.92,20.25,51.31,13.26,1.6-8,21.69-126,19.7-168.5C118.4,190.11,104.65,198.41,97.9,212.44Z"/><path class="cls-13" d="M100.45,377.22c-.61,7.64-5,23.18-8.68,25.72s-23.87,3.08-34,3.62-12.29-2.19-12.31-5.69,21.24-5.29,21.24-5.29-28,9.65-35.09,11.35-23.34,6.73-26,.93c-1.21-2.62,3.16-5.56,3.16-5.56s-6.81,2.38-8.09-1C-.83,397.45,4.55,395,4.55,395S.28,396.11,0,392.93c-.6-7.12,26.26-12,26.26-12S6.1,392.06,5.13,386.28c-1.35-8,40.62-19.06,44.86-22.8a83.05,83.05,0,0,0,8.53-9.21Z"/><path class="cls-6" d="M45.69,402.63a3.14,3.14,0,0,1,.82-2.77,9,9,0,0,1,2.39-1.73,33.63,33.63,0,0,1,5.72-2.19c3.94-1.23,8-2.16,12-3.43a49.74,49.74,0,0,0-12.45,2.07,23.08,23.08,0,0,0-5.87,2.6A8.19,8.19,0,0,0,46,399.46,3.25,3.25,0,0,0,45.69,402.63Z"/><path class="cls-6" d="M8.72,402.3c2.88-.87,5.72-1.85,8.56-2.83s5.65-2,8.47-3l8.42-3.14c2.81-1,5.62-2.08,8.46-3.09a67.69,67.69,0,0,0-8.8,2.05c-2.9.83-5.74,1.82-8.57,2.84s-5.63,2.14-8.38,3.35S11.38,400.89,8.72,402.3Z"/><path class="cls-6" d="M35.39,383.47A57.73,57.73,0,0,0,27.24,385a78.8,78.8,0,0,0-7.91,2.49,72.3,72.3,0,0,0-7.61,3.31A58.28,58.28,0,0,0,4.55,395c2.57-1,5.06-2.18,7.62-3.18s5.08-2,7.66-3S25,387,27.56,386.08,32.76,384.33,35.39,383.47Z"/><path class="cls-6" d="M30.85,376.9a51.11,51.11,0,0,0-12.91,3.44,50.83,50.83,0,0,0-11.71,6.45c4.13-1.72,8.13-3.51,12.24-5.12S26.68,378.49,30.85,376.9Z"/><path class="cls-7" d="M120.5,259l-46.81.23s12.71-37.63,24.8-53.18,21.81-13.5,22.9,4.8S120.5,259,120.5,259Z"/><path class="cls-7" d="M121.39,210.87c0,.82.1,1.69.12,2.56,0,.39,0,.78.06,1.18.66,18.34-1.06,44.4-1.06,44.4l-12.71.07h-1.28l-32.83.17s5.39-16,12.48-31.38c.23-.51.47-1,.72-1.54,3.62-7.72,7.64-15.17,11.59-20.26C110.59,190.51,120.3,192.57,121.39,210.87Z"/><path class="cls-2" d="M82.57,259.2l9.5-.05A38.23,38.23,0,0,0,82.57,259.2ZM121,221.28c-.26-1.85-.4-3.72-.52-5.59a108,108,0,0,0-.91-11.07c-.15-.85-.31-1.69-.52-2.53.19-.18.37-.34.56-.53-.13-.36-.28-.7-.42-1l-.45.42a21.65,21.65,0,0,0-1-2.82,6.73,6.73,0,0,0-2-1.76,20.12,20.12,0,0,1,2,4.35c.1.33.2.67.28,1a31.86,31.86,0,0,1-9.35,6.43c-3.56,1.44-7.95,1.63-11.13-.73-.18.26-.37.51-.55.78a11.75,11.75,0,0,0,9.16,1.78c4.58-.87,8.5-3.9,11.93-6.9l.23-.21c1.44,6.18.9,12.7,1.88,19,.36,2.34,1,4.7,1.57,7.06,0-1.33,0-2.66,0-4C121.44,223.71,121.21,222.51,121,221.28Zm-2.56,29.62A10.34,10.34,0,0,1,109,252c-7.08-2.27-11.21-9-17.06-13.14a54.07,54.07,0,0,0-8.6-4.58c-.12.27-.24.55-.35.83,1.66.79,3.33,1.56,4.89,2.41A31.9,31.9,0,0,1,92,240.15,49,49,0,0,1,96.27,244c2.72,2.64,5.37,5.45,8.68,7.38,3,1.75,6.58,2.86,10.07,2.19a10.41,10.41,0,0,0,6-3.71c0-.6.06-1.22.08-1.86A10,10,0,0,1,118.47,250.9Z"/><path class="cls-6" d="M79.67,248.44c3-.91,24.62-2.35,39.93-1.33a.18.18,0,0,1,0,.36c-1.7.1-36.74,2-39.94,1.46C79.4,248.89,79.45,248.51,79.67,248.44Z"/><path class="cls-6" d="M123.47,230.63a.12.12,0,0,0-.24,0,44.27,44.27,0,0,0-1,4.84c-.07.37-.12.75-.18,1.12-.13-3.94-.33-7.89-.54-11.8a.15.15,0,0,0-.29,0,337.13,337.13,0,0,1-1.06,33.87l-4.07.33a.25.25,0,0,0,0,.49l5.17.18c.21,0,1.08-11.32.86-20.24.29-1.29.59-2.57.8-3.87A32.26,32.26,0,0,0,123.47,230.63Z"/><path class="cls-6" d="M80,259.25c-2.11.13-4.22.24-6.33.3h-.41l.13-.41c.81-2.58,1.66-5.15,2.57-7.69s1.86-5.09,2.86-7.6,2-5,3.16-7.47,2.29-4.91,3.6-7.28l-2.95,7.55-2.87,7.57-2.88,7.56L74,259.35l-.28-.4C75.8,259,77.91,259.12,80,259.25Z"/><path class="cls-13" d="M137.2,214.91c-7.12,2.35-20.57-7.66-26.27-16.22-.39-.59,0-25.46-.4-30.4-.1-1,31.67,4.82,31.67,4.82s-2.15,10.62-1.35,19.23C140.92,193.05,144.08,212.64,137.2,214.91Z"/><path class="cls-6" d="M142.21,173.11l0,0c0,.15-.15.77-.32,1.77-.28,1.7-.7,4.45-.94,7.57a56.88,56.88,0,0,0-.08,9.86c0,.24.06.47.08.68v.11c.07.4.13.94.21,1.58a19.85,19.85,0,0,1-3,.43c-16.91,1.09-24.39-19.13-26.66-26.94.17,0,.35,0,.55,0,.83.06,1.92.19,3.24.36l1,.15c2.12.29,4.63.7,7.25,1.11l2.61.43c1.87.33,3.77.65,5.54.94.75.16,1.5.28,2.21.4l2.25.39,1,.18c.18.05.33.07.49.1l2.63.47,1.26.23a3.74,3.74,0,0,1,.53.11.09.09,0,0,1,.09,0Z"/><path class="cls-13" d="M104.44,132c-3,11.13,3.86,42.76,11.94,49.6,11.71,9.92,30.37,10.29,38.67-3.66,8.06-13.51-1.62-54.58-10.6-60.74C131.23,108.16,108.88,115.6,104.44,132Z"/><path class="cls-6" d="M109,163c5.65-1.83,3.16-16.53,3.16-16.53s6.74-4,6.65-17.75c0,0,7.28,12.26,30.83,5a21,21,0,0,0-4-12.23,88,88,0,0,1,8.39,11.89s2.18-21.05-16.17-25.05c-7.29-1.59-17.52.83-31.84,11.4,0,0-4.69-8.87-6.28-7.31s3.47,9.72,3.47,9.72-7.28-.9-8.19.75c-.77,1.42,6.18,2,6.18,2s-10,5.25-6,17.11C98.82,152.9,106.24,163.91,109,163Z"/><path class="cls-6" d="M103.11,124.41a12.68,12.68,0,0,0-10.86,12.81c.12,3.53,1.64,7.09,3.32,10.15a43.84,43.84,0,0,0,6.86,8.9c.14.16.35-.1.21-.25a33.82,33.82,0,0,1-5.76-8.52,31.22,31.22,0,0,1-3.24-9.29,12.17,12.17,0,0,1,9.54-13.45A.18.18,0,0,0,103.11,124.41Z"/><path class="cls-6" d="M123.55,107.51a49.33,49.33,0,0,0-11,6.45,36,36,0,0,0-8.55,8.55.16.16,0,0,0,.25.21c5.24-5.63,12.08-9.89,19-13.25,6.44-3.15,14.47-4.58,20.62,0a.1.1,0,0,0,.13-.15C138.29,104.38,130.12,104.85,123.55,107.51Z"/><path class="cls-13" d="M112.49,158s-7.36-10.19-12-7.55,1,17.48,6.53,19.44a5.59,5.59,0,0,0,7.44-3.11Z"/><path class="cls-6" d="M102.21,154.61a.08.08,0,0,0,0,.15c3.87,1.5,5.95,5,7.43,8.71-1.17-1.4-2.74-2.16-4.63-.77-.1.07,0,.23.11.2a3.45,3.45,0,0,1,3.8,1.14,16.49,16.49,0,0,1,1.85,3c.19.34.81.15.67-.24l0-.09C111.4,161.83,107.49,155,102.21,154.61Z"/><path class="cls-6" d="M137.43,150.21c0-.08-.15.13-.13.21.44,2.1.59,4.59-1.2,5.63,0,0,0,.14,0,.11C138.42,155.42,138.18,152.13,137.43,150.21Z"/><path class="cls-6" d="M135.15,148.33c-3.45.35-2.51,7.22.69,6.9S138,148,135.15,148.33Z"/><path class="cls-6" d="M149.54,147.72c0-.08.18.08.19.17.22,2.14.84,4.54,2.86,5,.06,0,.07.12,0,.12C150.2,153,149.41,149.78,149.54,147.72Z"/><path class="cls-6" d="M151.13,145.24c3.39-.73,4.6,6.1,1.46,6.77S148.29,145.85,151.13,145.24Z"/><path class="cls-6" d="M131.93,146.38c.9-.37,1.67-.85,2.53-1.3a4.68,4.68,0,0,0,2.33-1.82,1.47,1.47,0,0,0-.48-1.73,3.63,3.63,0,0,0-3.68.13,5.35,5.35,0,0,0-2.74,2.7A1.57,1.57,0,0,0,131.93,146.38Z"/><path class="cls-6" d="M152.79,141.48a27,27,0,0,1-2.83-.34,4.51,4.51,0,0,1-2.81-.89,1.46,1.46,0,0,1-.16-1.78,3.63,3.63,0,0,1,3.49-1.17,5.39,5.39,0,0,1,3.51,1.58A1.57,1.57,0,0,1,152.79,141.48Z"/><path class="cls-6" d="M137.82,169.13c.58.43,1.18,1,2,1a5.63,5.63,0,0,0,2.22-.85.08.08,0,0,1,.11.1,2.93,2.93,0,0,1-2.55,1.53,2.31,2.31,0,0,1-1.93-1.66C137.58,169.14,137.74,169.07,137.82,169.13Z"/><path class="cls-6" d="M139.19,162.45a7.28,7.28,0,0,0,5.27,2.56,9,9,0,0,0,2.63-.24,2.51,2.51,0,0,0,.49-.12,4.59,4.59,0,0,0,.45-.14.52.52,0,0,0,.36-.53v0a.72.72,0,0,0,0-.21v0l0-.19c-.18-1.64-.68-4.11-.68-4.11.64.22,3.88,1.17,3.71.32-1.39-7-3-14.84-5.82-21.54a.2.2,0,0,0-.38.11c1.07,6.81,3.34,13.38,4.53,20.2a12.9,12.9,0,0,0-3.57-.57c-.22.1,1.06,4.76,1.08,5.5v.08c-2.71.73-4.9.19-7.82-1.3C139.18,162.13,139,162.3,139.19,162.45Z"/><path class="cls-6" d="M146,164.08a8.81,8.81,0,0,1-3.08,3.14,3.91,3.91,0,0,1-2.33.46c-1.76-.21-2-1.76-1.89-3.14a9.33,9.33,0,0,1,.48-2.15A11.22,11.22,0,0,0,146,164.08Z"/><path class="cls-15" d="M142.93,167.22a3.91,3.91,0,0,1-2.33.46c-1.76-.21-2-1.76-1.89-3.14C140.56,164.48,142.53,165.47,142.93,167.22Z"/></g></g></svg>