<svg xmlns="http://www.w3.org/2000/svg" viewBox="0 0 469.45 69.37"><defs><style>.cls-1{fill:#21b24b;}</style></defs><g id="Layer_2" data-name="Layer 2"><g id="Layer_1-2" data-name="Layer 1"><path class="cls-1" d="M3.82,27.39,38.12,8.51A1.29,1.29,0,0,1,40,9.64v6.64a1.28,1.28,0,0,1-.68,1.13L12.69,31.78a1.28,1.28,0,0,0,0,2.26L39.36,48.57A1.29,1.29,0,0,1,40,49.7v6.63a1.29,1.29,0,0,1-1.91,1.13l-34.3-19C1.61,37.32,0,35.87,0,32.91,0,30.19,1.61,28.67,3.82,27.39Z"/><path class="cls-1" d="M94.66,60.6,65.72,37.08c-1.75-1.21-4,.19-4,2.48v17.9a1.29,1.29,0,0,1-1.21,1.35H53.17A1.28,1.28,0,0,1,52,57.46V4.32A1.28,1.28,0,0,1,53.17,3h33.3c12.35,0,17.39,3,17.39,14.8v3.39c0,11.41-5.49,14.37-17.51,14.37H81.4A.86.86,0,0,0,81,37.1l27,21.18a1.39,1.39,0,0,1-.61,2.53H95.3A1.07,1.07,0,0,1,94.66,60.6ZM94,18.35c0-5.27-1.75-6.14-8.21-6.14H62.93a1.28,1.28,0,0,0-1.21,1.35V25.87a1.29,1.29,0,0,0,1.21,1.36h22.9c6.33,0,8.21-.87,8.21-6.21Z"/><path class="cls-1" d="M131,60.81c-13.23,0-16.79-4.67-16.79-12.13V44.35c0-7.71,3.23-12.12,15.95-12.12h34v-1c0-5.85-2.21-7.38-7.81-7.38H125.62a3.13,3.13,0,0,1-3.13-3.14V18a3.14,3.14,0,0,1,3.13-3.14H156.4c14.67,0,20.44,5.26,20.44,17V43c0,13.31-4.66,17.81-21,17.81Zm33.17-17.64A3.14,3.14,0,0,0,161.07,40H131.55c-3,0-4.75,1-4.75,4.66h0a7.47,7.47,0,0,0,7.47,7.47h21.45c5.94,0,8.49-1.36,8.49-8.23Z"/><path class="cls-1" d="M238.38,60.81a5.31,5.31,0,0,1-5.31-5.31V35.2c0-7.64-2.12-9.5-10.26-9.5H209.07c-8,0-10.26,1.86-10.26,9.5V55.5a5.31,5.31,0,0,1-5.31,5.31h-2a5.31,5.31,0,0,1-5.31-5.31V34.77c0-14.67,5-19.93,22-19.93h15.35c17.13,0,22.13,5.26,22.13,19.93V55.5a5.31,5.31,0,0,1-5.31,5.31Z"/><path class="cls-1" d="M277.09,60.81c-17,0-22-5.26-22-19.85V34.77c0-14.67,5-19.93,22-19.93h15.36c17.13,0,22.13,5.26,22.13,20V41c0,14.59-5,19.85-22.13,19.85ZM301.94,35.2c0-7.81-2-9.5-11.19-9.5h-12c-9,0-11.11,1.69-11.11,9.5v5.42c0,7.64,2.12,9.5,11.11,9.5h12c9.16,0,11.19-1.86,11.19-9.5Z"/><path class="cls-1" d="M362.73,60.1,342,43.28a3.15,3.15,0,0,0-5.14,2.44V57.65a3.15,3.15,0,0,1-3.15,3.16h-6.42a3.15,3.15,0,0,1-3.15-3.16V3.15A3.15,3.15,0,0,1,327.32,0h6.42a3.15,3.15,0,0,1,3.15,3.15V29.56A3.16,3.16,0,0,0,342,32l20.55-16.49a3.21,3.21,0,0,1,2-.69h6.12a3.16,3.16,0,0,1,1.94,5.65L354.45,34.54a3.15,3.15,0,0,0-.06,4.94l19.36,15.73a3.15,3.15,0,0,1-2,5.6h-7A3.17,3.17,0,0,1,362.73,60.1Z"/><path class="cls-1" d="M383.07,66,413.35,1.35A2.37,2.37,0,0,1,415.48,0h4.9a2.35,2.35,0,0,1,2.13,3.35L392.31,68a2.35,2.35,0,0,1-2.13,1.35h-5A2.35,2.35,0,0,1,383.07,66Z"/><path class="cls-1" d="M465.64,38.5,432.09,57a1.8,1.8,0,0,1-2.67-1.57V50a1.8,1.8,0,0,1,.94-1.58L455.93,34.5a1.8,1.8,0,0,0,0-3.17L430.37,17.56a1.83,1.83,0,0,1-.95-1.59V10.51a1.8,1.8,0,0,1,2.67-1.58l33.55,18.46c2.2,1.28,3.81,2.8,3.81,5.52C469.45,35.87,467.84,37.32,465.64,38.5Z"/></g></g></svg>