<svg id="Layer_1" data-name="Layer 1" xmlns="http://www.w3.org/2000/svg" viewBox="0 0 785.06 95.41"><defs><style>.cls-1{fill:#39b54a;}</style></defs><path class="cls-1" d="M45.06,70.28,13.88,96.14v1l31.6,26.27-4.8,6L6.06,100.31V93.12L40.37,64.23Z" transform="translate(-6.06 -51.41)"/><path class="cls-1" d="M85.93,103.13l-13.24.42v23.56H64V62.57c29.71-4.38,39.72,4.17,39.72,17.41,0,8.55-4.58,14.39-10.84,18.87l15.43,28-9.28,1.36ZM72.69,97.19l14.08-.42c5-3.34,8.44-8.34,8.44-14.91,0-9.39-6.77-14.91-22.52-12.62Z" transform="translate(-6.06 -51.41)"/><path class="cls-1" d="M152.56,120.86a26.31,26.31,0,0,1-18.14,7.5c-9.28,0-15.64-5-15.64-13.24,0-10.53,10.43-18.46,33.05-17.1-.73-11.78-7.19-14.81-30-15.64l.94-7.3c29.51.83,37.44,7,37.44,26.69,0,10.64.41,17.83.83,25.13l-7.72.53C153.19,126.38,152.77,123.15,152.56,120.86Zm-.41-4.7c-.11-3.33-.21-7.09-.21-12.09-18.67-2-24.82,2.08-24.82,9.07,0,5.42,4.17,8.55,10.53,8.55C142.76,121.69,148.18,119.29,152.15,116.16Z" transform="translate(-6.06 -51.41)"/><path class="cls-1" d="M186.35,86.55c.2,9.28.41,22.73.41,40.56h-8.44c0-22.31-.21-39-.73-50.78l7.82-.52.52,5.84c4.27-3.55,9.8-6.78,17.1-6.78,9.18,0,15.22,5.11,15.22,17.62v34.62h-8.44V95.31c0-9.8-3.86-13.24-10.33-13.24A22.9,22.9,0,0,0,186.35,86.55Z" transform="translate(-6.06 -51.41)"/><path class="cls-1" d="M232.22,102.5c0-16.58,11.06-27.84,24.2-27.84,12.72,0,21.69,9.6,21.69,26,0,16.89-10.95,27.94-24.09,27.94C241.4,128.57,232.22,119,232.22,102.5Zm37.44-.31c0-13.24-5.94-20.65-14.7-20.65-8.35,0-14.18,6.89-14.18,19.4,0,13.35,5.94,20.65,14.59,20.65C263.82,121.59,269.66,114.81,269.66,102.19Z" transform="translate(-6.06 -51.41)"/><path class="cls-1" d="M310.43,104.17l-7.61.21v22.73h-8.45V54.22l8.45-.73V98.12l7.92-.2a251.91,251.91,0,0,0,16.89-22.11l8.66.62c-5.84,8.24-12,16.48-18.46,24.09l19.61,26-9,1.25Z" transform="translate(-6.06 -51.41)"/><path class="cls-1" d="M372.68,103.13l-13.24.42v23.56h-8.66V62.57c29.72-4.38,39.73,4.17,39.73,17.41,0,8.55-4.59,14.39-10.84,18.87l15.43,28-9.28,1.36Zm-13.24-5.94,14.07-.42c5-3.34,8.45-8.34,8.45-14.91,0-9.39-6.78-14.91-22.52-12.62Z" transform="translate(-6.06 -51.41)"/><path class="cls-1" d="M439.31,120.86a26.34,26.34,0,0,1-18.15,7.5c-9.28,0-15.64-5-15.64-13.24,0-10.53,10.43-18.46,33.06-17.1-.73-11.78-7.2-14.81-30-15.64l.94-7.3c29.51.83,37.43,7,37.43,26.69,0,10.64.42,17.83.83,25.13l-7.71.53C439.93,126.38,439.52,123.15,439.31,120.86Zm-.42-4.7c-.1-3.33-.21-7.09-.21-12.09-18.66-2-24.82,2.08-24.82,9.07,0,5.42,4.18,8.55,10.54,8.55C429.51,121.69,434.93,119.29,438.89,116.16Z" transform="translate(-6.06 -51.41)"/><path class="cls-1" d="M463.29,127.11v-6.46h19.19V82.8L463.39,82,464,76h26.9v44.63h19.19l-.63,6.46Zm18.56-59.33.63-14.18h9l-.93,14.18Z" transform="translate(-6.06 -51.41)"/><path class="cls-1" d="M530.86,86.24v40.87h-8.45V54.22l8.45-.73V81c4.17-3.33,9.49-6.15,16.26-6.15,9.18,0,15.23,5.11,15.23,17.62v34.62H553.9V95.31c0-9.8-3.86-13.24-10.32-13.24A22.81,22.81,0,0,0,530.86,86.24Z" transform="translate(-6.06 -51.41)"/><path class="cls-1" d="M611.36,120.86a26.34,26.34,0,0,1-18.15,7.5c-9.28,0-15.64-5-15.64-13.24,0-10.53,10.43-18.46,33.06-17.1-.73-11.78-7.2-14.81-30-15.64l.93-7.3c29.51.83,37.44,7,37.44,26.69,0,10.64.42,17.83.83,25.13l-7.71.53C612,126.38,611.56,123.15,611.36,120.86Zm-.42-4.7c-.11-3.33-.21-7.09-.21-12.09-18.66-2-24.82,2.08-24.82,9.07,0,5.42,4.17,8.55,10.53,8.55C601.55,121.69,607,119.29,610.94,116.16Z" transform="translate(-6.06 -51.41)"/><path class="cls-1" d="M645.14,86.55c.21,9.28.42,22.73.42,40.56h-8.45c0-22.31-.21-39-.73-50.78l7.82-.52.52,5.84c4.28-3.55,9.8-6.78,17.1-6.78,9.18,0,15.23,5.11,15.23,17.62v34.62H668.6V95.31c0-9.8-3.86-13.24-10.32-13.24A22.94,22.94,0,0,0,645.14,86.55Z" transform="translate(-6.06 -51.41)"/><path class="cls-1" d="M791.12,93v7.2l-34.72,29.2-4.7-6,31.7-26.27v-1l-30-24.71-39.52,75.39-7.4-3,48.49-92.39,7.19,3.34-5,9.59Z" transform="translate(-6.06 -51.41)"/></svg>